<?xml version="1.0" encoding="UTF-8" standalone="no"?><svg xmlns="http://www.w3.org/2000/svg" xmlns:xlink="http://www.w3.org/1999/xlink" contentScriptType="application/ecmascript" contentStyleType="text/css" height="655px" preserveAspectRatio="none" style="width:94px;height:655px;" version="1.1" viewBox="0 0 94 655" width="94px" zoomAndPan="magnify"><defs><filter height="300%" id="fe89hxvmmqbbj" width="300%" x="-1" y="-1"><feGaussianBlur result="blurOut" stdDeviation="2.0"/><feColorMatrix in="blurOut" result="blurOut2" type="matrix" values="0 0 0 0 0 0 0 0 0 0 0 0 0 0 0 0 0 0 .4 0"/><feOffset dx="4.0" dy="4.0" in="blurOut2" result="blurOut3"/><feBlend in="SourceGraphic" in2="blurOut3" mode="normal"/></filter></defs><g><ellipse cx="63" cy="18" fill="#000000" filter="url(#fe89hxvmmqbbj)" rx="10" ry="10" style="stroke: none; stroke-width: 1.0;"/><rect fill="#FEFECE" filter="url(#fe89hxvmmqbbj)" height="34.1328" rx="12.5" ry="12.5" style="stroke: #A80036; stroke-width: 1.5;" width="40" x="43" y="82"/><text fill="#000000" font-family="sans-serif" font-size="12" lengthAdjust="spacingAndGlyphs" textLength="20" x="53" y="103.6016">null</text><rect fill="#FF0000" filter="url(#fe89hxvmmqbbj)" height="34.1328" rx="12.5" ry="12.5" style="stroke: #A80036; stroke-width: 1.5;" width="28" x="49" y="170"/><text fill="#000000" font-family="sans-serif" font-size="12" lengthAdjust="spacingAndGlyphs" textLength="8" x="59" y="191.6016">5</text><rect fill="#FEFECE" filter="url(#fe89hxvmmqbbj)" height="34.1328" rx="12.5" ry="12.5" style="stroke: #A80036; stroke-width: 1.5;" width="28" x="9" y="258"/><text fill="#000000" font-family="sans-serif" font-size="12" lengthAdjust="spacingAndGlyphs" textLength="8" x="19" y="279.6016">4</text><rect fill="#FEFECE" filter="url(#fe89hxvmmqbbj)" height="34.1328" rx="12.5" ry="12.5" style="stroke: #A80036; stroke-width: 1.5;" width="28" x="36" y="346"/><text fill="#000000" font-family="sans-serif" font-size="12" lengthAdjust="spacingAndGlyphs" textLength="8" x="46" y="367.6016">3</text><rect fill="#FEFECE" filter="url(#fe89hxvmmqbbj)" height="34.1328" rx="12.5" ry="12.5" style="stroke: #A80036; stroke-width: 1.5;" width="28" x="9" y="434"/><text fill="#000000" font-family="sans-serif" font-size="12" lengthAdjust="spacingAndGlyphs" textLength="8" x="19" y="455.6016">2</text><rect fill="#FEFECE" filter="url(#fe89hxvmmqbbj)" height="34.1328" rx="12.5" ry="12.5" style="stroke: #A80036; stroke-width: 1.5;" width="28" x="45" y="522"/><text fill="#000000" font-family="sans-serif" font-size="12" lengthAdjust="spacingAndGlyphs" textLength="8" x="55" y="543.6016">1</text><rect fill="#FEFECE" filter="url(#fe89hxvmmqbbj)" height="34.1328" rx="12.5" ry="12.5" style="stroke: #A80036; stroke-width: 1.5;" width="28" x="6" y="610"/><text fill="#000000" font-family="sans-serif" font-size="12" lengthAdjust="spacingAndGlyphs" textLength="8" x="16" y="631.6016">0</text><!--link start to null--><path d="M63,28.2587 C63,40.3447 63,60.7784 63,76.586 " fill="none" id="start-null" style="stroke: #A80036; stroke-width: 1.0;"/><polygon fill="#A80036" points="63,81.7507,67,72.7507,63,76.7507,59,72.7507,63,81.7507" style="stroke: #A80036; stroke-width: 1.0;"/><text fill="#000000" font-family="sans-serif" font-size="11" lengthAdjust="spacingAndGlyphs" textLength="7" x="64" y="59.6348">1</text><!--link null to 5--><path d="M63,116.386 C63,130.2154 63,149.6635 63,164.6491 " fill="none" id="null-5" style="stroke: #A80036; stroke-width: 1.0;"/><polygon fill="#A80036" points="63,169.9496,67,160.9496,63,164.9496,59,160.9496,63,169.9496" style="stroke: #A80036; stroke-width: 1.0;"/><text fill="#000000" font-family="sans-serif" font-size="11" lengthAdjust="spacingAndGlyphs" textLength="7" x="64" y="147.6348">1</text><!--link 5 to 4--><path d="M55.0973,204.386 C48.756,218.3367 39.8159,238.0051 32.9807,253.0424 " fill="none" id="5-4" style="stroke: #A80036; stroke-width: 1.0;"/><polygon fill="#A80036" points="30.7502,257.9496,38.1159,251.4115,32.8192,253.3978,30.8329,248.1011,30.7502,257.9496" style="stroke: #A80036; stroke-width: 1.0;"/><text fill="#000000" font-family="sans-serif" font-size="11" lengthAdjust="spacingAndGlyphs" textLength="7" x="47" y="235.6348">3</text><!--link 4 to 3--><path d="M28.3343,292.386 C32.6147,306.3367 38.6493,326.0051 43.263,341.0424 " fill="none" id="4-3" style="stroke: #A80036; stroke-width: 1.0;"/><polygon fill="#A80036" points="44.7686,345.9496,45.9526,336.1722,43.3019,341.1696,38.3045,338.5189,44.7686,345.9496" style="stroke: #A80036; stroke-width: 1.0;"/><text fill="#000000" font-family="sans-serif" font-size="11" lengthAdjust="spacingAndGlyphs" textLength="7" x="40" y="323.6348">3</text><!--link 3 to 2--><path d="M44.6657,380.386 C40.3853,394.3367 34.3507,414.0051 29.737,429.0424 " fill="none" id="3-2" style="stroke: #A80036; stroke-width: 1.0;"/><polygon fill="#A80036" points="28.2314,433.9496,34.6955,426.5189,29.6981,429.1696,27.0474,424.1722,28.2314,433.9496" style="stroke: #A80036; stroke-width: 1.0;"/><text fill="#000000" font-family="sans-serif" font-size="11" lengthAdjust="spacingAndGlyphs" textLength="14" x="40" y="411.6348">80</text><!--link 2 to 1--><path d="M27.0404,468.3433 C29.6372,478.3744 33.3872,491.1244 38,502 C40.1639,507.102 42.8634,512.3916 45.5985,517.3207 " fill="none" id="2-1" style="stroke: #A80036; stroke-width: 1.0;"/><polygon fill="#A80036" points="48.1061,521.7303,47.1342,511.9295,45.6344,517.3839,40.18,515.8842,48.1061,521.7303" style="stroke: #A80036; stroke-width: 1.0;"/><text fill="#000000" font-family="sans-serif" font-size="11" lengthAdjust="spacingAndGlyphs" textLength="21" x="39" y="499.6348">247</text><!--link 1 to 0--><path d="M51.2949,556.386 C45.1121,570.3367 36.3955,590.0051 29.7312,605.0424 " fill="none" id="1-0" style="stroke: #A80036; stroke-width: 1.0;"/><polygon fill="#A80036" points="27.5564,609.9496,34.86,603.3423,29.5823,605.3784,27.5462,600.1007,27.5564,609.9496" style="stroke: #A80036; stroke-width: 1.0;"/><text fill="#000000" font-family="sans-serif" font-size="11" lengthAdjust="spacingAndGlyphs" textLength="21" x="43" y="587.6348">167</text><!--link 0 to 2--><path d="M17.0902,609.9037 C13.9246,589.1226 9.6138,552.9877 12,522 C13.2709,505.4962 16.18,487.0243 18.6874,473.0594 " fill="none" id="0-2" style="stroke: #A80036; stroke-width: 1.0;"/><polygon fill="#A80036" points="19.5892,468.1303,14.0348,476.2635,18.6894,473.0487,21.9042,477.7032,19.5892,468.1303" style="stroke: #A80036; stroke-width: 1.0;"/><text fill="#000000" font-family="sans-serif" font-size="11" lengthAdjust="spacingAndGlyphs" textLength="21" x="13" y="543.6348">167</text><!--link 1 to 3--><path d="M60.7752,521.7682 C63.1219,495.3866 66.2743,443.4708 60,400 C59.3019,395.1635 58.1815,390.0571 56.9384,385.2336 " fill="none" id="1-3" style="stroke: #A80036; stroke-width: 1.0;"/><polygon fill="#A80036" points="55.5555,380.1368,54.0518,389.8702,56.8648,384.9623,61.7726,387.7753,55.5555,380.1368" style="stroke: #A80036; stroke-width: 1.0;"/><text fill="#000000" font-family="sans-serif" font-size="11" lengthAdjust="spacingAndGlyphs" textLength="14" x="64" y="455.6348">80</text><!--link 3 to 5--><path d="M51.4096,345.6829 C51.9134,339.475 52.4841,332.424 53,326 C56.1409,286.8913 57.2923,277.1411 60,238 C60.6549,228.5323 61.2865,218.0694 61.7998,209.0972 " fill="none" id="3-5" style="stroke: #A80036; stroke-width: 1.0;"/><polygon fill="#A80036" points="62.0876,204.0056,57.5859,212.7654,61.8053,208.9976,65.5731,213.2171,62.0876,204.0056" style="stroke: #A80036; stroke-width: 1.0;"/><text fill="#000000" font-family="sans-serif" font-size="11" lengthAdjust="spacingAndGlyphs" textLength="7" x="59" y="279.6348">3</text><!--
@startuml
(*) - -> [1] "null"
"null" - -> [1] "5"
"5" - -> [3] "4"
"4" - -> [3] "3"
"3" - -> [80] "2"
"2" - -> [247] "1"
"1" - -> [167] "0"
"0" - -> [167] "2"
"1" - -> [80] "3"
"3" - -> [3] "5" #red
@enduml

PlantUML version 1.2017.15(Mon Jul 03 12:45:34 EDT 2017)
(EPL source distribution)
Java Runtime: Java(TM) SE Runtime Environment
JVM: Java HotSpot(TM) 64-Bit Server VM
Java Version: 1.8.0_144-b01
Operating System: Mac OS X
OS Version: 10.12
Default Encoding: UTF-8
Language: en
Country: US
--></g></svg>