<?xml version="1.0" encoding="UTF-8" standalone="no"?><svg xmlns="http://www.w3.org/2000/svg" xmlns:xlink="http://www.w3.org/1999/xlink" contentScriptType="application/ecmascript" contentStyleType="text/css" height="1467px" preserveAspectRatio="none" style="width:807px;height:1467px;" version="1.1" viewBox="0 0 807 1467" width="807px" zoomAndPan="magnify"><defs><filter height="300%" id="fc8ycsrtv4b6f" width="300%" x="-1" y="-1"><feGaussianBlur result="blurOut" stdDeviation="2.0"/><feColorMatrix in="blurOut" result="blurOut2" type="matrix" values="0 0 0 0 0 0 0 0 0 0 0 0 0 0 0 0 0 0 .4 0"/><feOffset dx="4.0" dy="4.0" in="blurOut2" result="blurOut3"/><feBlend in="SourceGraphic" in2="blurOut3" mode="normal"/></filter></defs><g><ellipse cx="340" cy="18" fill="#000000" filter="url(#fc8ycsrtv4b6f)" rx="10" ry="10" style="stroke: none; stroke-width: 1.0;"/><rect fill="#FEFECE" filter="url(#fc8ycsrtv4b6f)" height="34.1328" rx="12.5" ry="12.5" style="stroke: #A80036; stroke-width: 1.5;" width="136" x="272" y="82"/><text fill="#000000" font-family="sans-serif" font-size="12" lengthAdjust="spacingAndGlyphs" textLength="116" x="282" y="103.6016">null,null,null,null,null</text><rect fill="#FEFECE" filter="url(#fc8ycsrtv4b6f)" height="34.1328" rx="12.5" ry="12.5" style="stroke: #A80036; stroke-width: 1.5;" width="131" x="274.5" y="170"/><text fill="#000000" font-family="sans-serif" font-size="12" lengthAdjust="spacingAndGlyphs" textLength="111" x="284.5" y="191.6016">~E,null,null,null,null</text><rect fill="#FEFECE" filter="url(#fc8ycsrtv4b6f)" height="34.1328" rx="12.5" ry="12.5" style="stroke: #A80036; stroke-width: 1.5;" width="126" x="277" y="258"/><text fill="#000000" font-family="sans-serif" font-size="12" lengthAdjust="spacingAndGlyphs" textLength="106" x="287" y="279.6016">~E,~E,null,null,null</text><rect fill="#FEFECE" filter="url(#fc8ycsrtv4b6f)" height="34.1328" rx="12.5" ry="12.5" style="stroke: #A80036; stroke-width: 1.5;" width="121" x="279.5" y="346"/><text fill="#000000" font-family="sans-serif" font-size="12" lengthAdjust="spacingAndGlyphs" textLength="101" x="289.5" y="367.6016">~E,~E,~E,null,null</text><rect fill="#FEFECE" filter="url(#fc8ycsrtv4b6f)" height="34.1328" rx="12.5" ry="12.5" style="stroke: #A80036; stroke-width: 1.5;" width="116" x="282" y="434"/><text fill="#000000" font-family="sans-serif" font-size="12" lengthAdjust="spacingAndGlyphs" textLength="96" x="292" y="455.6016">~E,~E,~E,~E,null</text><rect fill="#FF0000" filter="url(#fc8ycsrtv4b6f)" height="34.1328" rx="12.5" ry="12.5" style="stroke: #A80036; stroke-width: 1.5;" width="111" x="284.5" y="522"/><text fill="#000000" font-family="sans-serif" font-size="12" lengthAdjust="spacingAndGlyphs" textLength="91" x="294.5" y="543.6016">~E,~E,~E,~E,~E</text><rect fill="#FEFECE" filter="url(#fc8ycsrtv4b6f)" height="34.1328" rx="12.5" ry="12.5" style="stroke: #A80036; stroke-width: 1.5;" width="103" x="567.5" y="610"/><text fill="#000000" font-family="sans-serif" font-size="12" lengthAdjust="spacingAndGlyphs" textLength="83" x="577.5" y="631.6016">~E,~E,E,~E,~E</text><rect fill="#FEFECE" filter="url(#fc8ycsrtv4b6f)" height="34.1328" rx="12.5" ry="12.5" style="stroke: #A80036; stroke-width: 1.5;" width="95" x="454.5" y="1422"/><text fill="#000000" font-family="sans-serif" font-size="12" lengthAdjust="spacingAndGlyphs" textLength="75" x="464.5" y="1443.6016">E,~E,E,~E,~E</text><rect fill="#FEFECE" filter="url(#fc8ycsrtv4b6f)" height="34.1328" rx="12.5" ry="12.5" style="stroke: #A80036; stroke-width: 1.5;" width="103" x="167.5" y="1334"/><text fill="#000000" font-family="sans-serif" font-size="12" lengthAdjust="spacingAndGlyphs" textLength="83" x="177.5" y="1355.6016">E,~E,~E,~E,~E</text><rect fill="#FEFECE" filter="url(#fc8ycsrtv4b6f)" height="34.1328" rx="12.5" ry="12.5" style="stroke: #A80036; stroke-width: 1.5;" width="103" x="398.5" y="1158"/><text fill="#000000" font-family="sans-serif" font-size="12" lengthAdjust="spacingAndGlyphs" textLength="83" x="408.5" y="1179.6016">~E,E,~E,~E,~E</text><rect fill="#FEFECE" filter="url(#fc8ycsrtv4b6f)" height="34.1328" rx="12.5" ry="12.5" style="stroke: #A80036; stroke-width: 1.5;" width="103" x="255.5" y="962"/><text fill="#000000" font-family="sans-serif" font-size="12" lengthAdjust="spacingAndGlyphs" textLength="83" x="265.5" y="983.6016">~E,~E,~E,E,~E</text><rect fill="#FEFECE" filter="url(#fc8ycsrtv4b6f)" height="34.1328" rx="12.5" ry="12.5" style="stroke: #A80036; stroke-width: 1.5;" width="103" x="198.5" y="786"/><text fill="#000000" font-family="sans-serif" font-size="12" lengthAdjust="spacingAndGlyphs" textLength="83" x="208.5" y="807.6016">~E,~E,~E,~E,E</text><rect fill="#FEFECE" filter="url(#fc8ycsrtv4b6f)" height="34.1328" rx="12.5" ry="12.5" style="stroke: #A80036; stroke-width: 1.5;" width="95" x="293.5" y="1050"/><text fill="#000000" font-family="sans-serif" font-size="12" lengthAdjust="spacingAndGlyphs" textLength="75" x="303.5" y="1071.6016">~E,E,~E,E,~E</text><rect fill="#FEFECE" filter="url(#fc8ycsrtv4b6f)" height="34.1328" rx="12.5" ry="12.5" style="stroke: #A80036; stroke-width: 1.5;" width="95" x="426.5" y="1246"/><text fill="#000000" font-family="sans-serif" font-size="12" lengthAdjust="spacingAndGlyphs" textLength="75" x="436.5" y="1267.6016">~E,E,~E,~E,E</text><rect fill="#FEFECE" filter="url(#fc8ycsrtv4b6f)" height="34.1328" rx="12.5" ry="12.5" style="stroke: #A80036; stroke-width: 1.5;" width="95" x="122.5" y="1422"/><text fill="#000000" font-family="sans-serif" font-size="12" lengthAdjust="spacingAndGlyphs" textLength="75" x="132.5" y="1443.6016">E,~E,~E,~E,E</text><rect fill="#FEFECE" filter="url(#fc8ycsrtv4b6f)" height="34.1328" rx="12.5" ry="12.5" style="stroke: #A80036; stroke-width: 1.5;" width="95" x="594.5" y="1246"/><text fill="#000000" font-family="sans-serif" font-size="12" lengthAdjust="spacingAndGlyphs" textLength="75" x="604.5" y="1267.6016">~E,E,E,~E,~E</text><rect fill="#FEFECE" filter="url(#fc8ycsrtv4b6f)" height="34.1328" rx="12.5" ry="12.5" style="stroke: #A80036; stroke-width: 1.5;" width="95" x="408.5" y="1050"/><text fill="#000000" font-family="sans-serif" font-size="12" lengthAdjust="spacingAndGlyphs" textLength="75" x="418.5" y="1071.6016">~E,~E,E,E,~E</text><rect fill="#FEFECE" filter="url(#fc8ycsrtv4b6f)" height="34.1328" rx="12.5" ry="12.5" style="stroke: #A80036; stroke-width: 1.5;" width="95" x="247.5" y="874"/><text fill="#000000" font-family="sans-serif" font-size="12" lengthAdjust="spacingAndGlyphs" textLength="75" x="257.5" y="895.6016">~E,~E,~E,E,E</text><rect fill="#FEFECE" filter="url(#fc8ycsrtv4b6f)" height="34.1328" rx="12.5" ry="12.5" style="stroke: #A80036; stroke-width: 1.5;" width="95" x="204.5" y="1104"/><text fill="#000000" font-family="sans-serif" font-size="12" lengthAdjust="spacingAndGlyphs" textLength="75" x="214.5" y="1125.6016">E,~E,~E,E,~E</text><rect fill="#FEFECE" filter="url(#fc8ycsrtv4b6f)" height="34.1328" rx="12.5" ry="12.5" style="stroke: #A80036; stroke-width: 1.5;" width="95" x="297.5" y="1246"/><text fill="#000000" font-family="sans-serif" font-size="12" lengthAdjust="spacingAndGlyphs" textLength="75" x="307.5" y="1267.6016">E,E,~E,~E,~E</text><rect fill="#FEFECE" filter="url(#fc8ycsrtv4b6f)" height="34.1328" rx="12.5" ry="12.5" style="stroke: #A80036; stroke-width: 1.5;" width="95" x="492.5" y="698"/><text fill="#000000" font-family="sans-serif" font-size="12" lengthAdjust="spacingAndGlyphs" textLength="75" x="502.5" y="719.6016">~E,~E,E,~E,E</text><!--link start to null,null,null,null,null--><path d="M340,28.2587 C340,40.3447 340,60.7784 340,76.586 " fill="none" id="start-null,null,null,null,null" style="stroke: #A80036; stroke-width: 1.0;"/><polygon fill="#A80036" points="340,81.7507,344,72.7507,340,76.7507,336,72.7507,340,81.7507" style="stroke: #A80036; stroke-width: 1.0;"/><text fill="#000000" font-family="sans-serif" font-size="11" lengthAdjust="spacingAndGlyphs" textLength="7" x="341" y="59.6348">1</text><!--link null,null,null,null,null to ~E,null,null,null,null--><path d="M340,116.386 C340,130.2154 340,149.6635 340,164.6491 " fill="none" id="null,null,null,null,null-~E,null,null,null,null" style="stroke: #A80036; stroke-width: 1.0;"/><polygon fill="#A80036" points="340,169.9496,344,160.9496,340,164.9496,336,160.9496,340,169.9496" style="stroke: #A80036; stroke-width: 1.0;"/><text fill="#000000" font-family="sans-serif" font-size="11" lengthAdjust="spacingAndGlyphs" textLength="7" x="341" y="147.6348">1</text><!--link ~E,null,null,null,null to ~E,~E,null,null,null--><path d="M340,204.386 C340,218.2154 340,237.6635 340,252.6491 " fill="none" id="~E,null,null,null,null-~E,~E,null,null,null" style="stroke: #A80036; stroke-width: 1.0;"/><polygon fill="#A80036" points="340,257.9496,344,248.9496,340,252.9496,336,248.9496,340,257.9496" style="stroke: #A80036; stroke-width: 1.0;"/><text fill="#000000" font-family="sans-serif" font-size="11" lengthAdjust="spacingAndGlyphs" textLength="7" x="341" y="235.6348">1</text><!--link ~E,~E,null,null,null to ~E,~E,~E,null,null--><path d="M340,292.386 C340,306.2154 340,325.6635 340,340.6491 " fill="none" id="~E,~E,null,null,null-~E,~E,~E,null,null" style="stroke: #A80036; stroke-width: 1.0;"/><polygon fill="#A80036" points="340,345.9496,344,336.9496,340,340.9496,336,336.9496,340,345.9496" style="stroke: #A80036; stroke-width: 1.0;"/><text fill="#000000" font-family="sans-serif" font-size="11" lengthAdjust="spacingAndGlyphs" textLength="7" x="341" y="323.6348">1</text><!--link ~E,~E,~E,null,null to ~E,~E,~E,~E,null--><path d="M340,380.386 C340,394.2154 340,413.6635 340,428.6491 " fill="none" id="~E,~E,~E,null,null-~E,~E,~E,~E,null" style="stroke: #A80036; stroke-width: 1.0;"/><polygon fill="#A80036" points="340,433.9496,344,424.9496,340,428.9496,336,424.9496,340,433.9496" style="stroke: #A80036; stroke-width: 1.0;"/><text fill="#000000" font-family="sans-serif" font-size="11" lengthAdjust="spacingAndGlyphs" textLength="7" x="341" y="411.6348">1</text><!--link ~E,~E,~E,~E,null to ~E,~E,~E,~E,~E--><path d="M340,468.386 C340,482.2154 340,501.6635 340,516.6491 " fill="none" id="~E,~E,~E,~E,null-~E,~E,~E,~E,~E" style="stroke: #A80036; stroke-width: 1.0;"/><polygon fill="#A80036" points="340,521.9496,344,512.9496,340,516.9496,336,512.9496,340,521.9496" style="stroke: #A80036; stroke-width: 1.0;"/><text fill="#000000" font-family="sans-serif" font-size="11" lengthAdjust="spacingAndGlyphs" textLength="7" x="341" y="499.6348">1</text><!--link ~E,~E,~E,~E,~E to ~E,~E,~E,~E,~E--><path d="M395.6412,531.04 C407.193,531.8779 415.5,534.5312 415.5,539 C415.5,542.7705 409.5862,545.2486 400.7991,546.4342 " fill="none" id="~E,~E,~E,~E,~E-~E,~E,~E,~E,~E" style="stroke: #A80036; stroke-width: 1.0;"/><polygon fill="#A80036" points="395.6412,546.96,405.0005,550.0265,400.6154,546.4529,404.1891,542.0678,395.6412,546.96" style="stroke: #A80036; stroke-width: 1.0;"/><text fill="#000000" font-family="sans-serif" font-size="11" lengthAdjust="spacingAndGlyphs" textLength="21" x="421.5" y="543.6348">176</text><!--link ~E,~E,~E,~E,~E to ~E,~E,E,~E,~E--><path d="M395.6229,552.9289 C420.6337,559.4721 450.4393,567.6587 477,576 C508.0554,585.7529 542.4203,598.0543 569.5642,608.1321 " fill="none" id="~E,~E,~E,~E,~E-~E,~E,E,~E,~E" style="stroke: #A80036; stroke-width: 1.0;"/><polygon fill="#A80036" points="574.5461,609.9868,567.5073,603.098,569.8603,608.2423,564.7161,610.5952,574.5461,609.9868" style="stroke: #A80036; stroke-width: 1.0;"/><text fill="#000000" font-family="sans-serif" font-size="11" lengthAdjust="spacingAndGlyphs" textLength="14" x="517" y="587.6348">42</text><!--link ~E,~E,E,~E,~E to ~E,~E,~E,~E,~E--><path d="M596.5379,609.8289 C580.7051,598.5531 558.5613,584.3884 537,576 C493.2365,558.9739 440.8733,549.6168 401.1362,544.5745 " fill="none" id="~E,~E,E,~E,~E-~E,~E,~E,~E,~E" style="stroke: #A80036; stroke-width: 1.0;"/><polygon fill="#A80036" points="395.8621,543.9211,404.3019,548.9975,400.8242,544.536,405.2857,541.0582,395.8621,543.9211" style="stroke: #A80036; stroke-width: 1.0;"/><text fill="#000000" font-family="sans-serif" font-size="11" lengthAdjust="spacingAndGlyphs" textLength="14" x="566" y="587.6348">42</text><!--link ~E,~E,E,~E,~E to E,~E,E,~E,~E--><path d="M670.6126,640.8641 C705.4092,653.6972 745,676.7114 745,715 C745,715 745,715 745,1351 C745,1391.1474 626.2553,1418.1674 554.7812,1430.7949 " fill="none" id="~E,~E,E,~E,~E-E,~E,E,~E,~E" style="stroke: #A80036; stroke-width: 1.0;"/><polygon fill="#A80036" points="549.719,1431.6791,559.2731,1434.0707,554.6444,1430.8187,557.8964,1426.19,549.719,1431.6791" style="stroke: #A80036; stroke-width: 1.0;"/><text fill="#000000" font-family="sans-serif" font-size="11" lengthAdjust="spacingAndGlyphs" textLength="7" x="746" y="1027.6348">2</text><!--link E,~E,E,~E,~E to ~E,~E,E,~E,~E--><path d="M549.7026,1434.2033 C630.8351,1424.7104 787,1400.0655 787,1351 C787,715 787,715 787,715 C787,663.5905 724.5051,642.1562 675.7481,633.2566 " fill="none" id="E,~E,E,~E,~E-~E,~E,E,~E,~E" style="stroke: #A80036; stroke-width: 1.0;"/><polygon fill="#A80036" points="670.7764,632.3833,678.9486,637.8802,675.701,633.2484,680.3328,630.0008,670.7764,632.3833" style="stroke: #A80036; stroke-width: 1.0;"/><text fill="#000000" font-family="sans-serif" font-size="11" lengthAdjust="spacingAndGlyphs" textLength="7" x="788" y="1027.6348">3</text><!--link E,~E,E,~E,~E to E,~E,~E,~E,~E--><path d="M461.422,1421.9311 C435.3156,1411.3271 400.5003,1397.8825 369,1388 C338.6431,1378.4762 304.2141,1369.8345 276.004,1363.3021 " fill="none" id="E,~E,E,~E,~E-E,~E,~E,~E,~E" style="stroke: #A80036; stroke-width: 1.0;"/><polygon fill="#A80036" points="270.8113,1362.1072,278.6849,1368.0238,275.6839,1363.2286,280.4791,1360.2276,270.8113,1362.1072" style="stroke: #A80036; stroke-width: 1.0;"/><text fill="#000000" font-family="sans-serif" font-size="11" lengthAdjust="spacingAndGlyphs" textLength="7" x="410" y="1399.6348">2</text><!--link E,~E,~E,~E,~E to E,~E,E,~E,~E--><path d="M262.1299,1368.0925 C289.3851,1378.5769 325.478,1391.8834 358,1402 C387.9318,1411.3108 421.8708,1420.1143 449.2793,1426.7964 " fill="none" id="E,~E,~E,~E,~E-E,~E,E,~E,~E" style="stroke: #A80036; stroke-width: 1.0;"/><polygon fill="#A80036" points="454.3187,1428.0191,446.5157,1422.0097,449.4597,1426.8401,444.6293,1429.7841,454.3187,1428.0191" style="stroke: #A80036; stroke-width: 1.0;"/><text fill="#000000" font-family="sans-serif" font-size="11" lengthAdjust="spacingAndGlyphs" textLength="7" x="359" y="1399.6348">3</text><!--link E,~E,~E,~E,~E to ~E,~E,~E,~E,~E--><path d="M167.2303,1346.0707 C116.9006,1338.0896 48,1317.2555 48,1263 C48,627 48,627 48,627 C48,579.1108 193.8019,554.9609 279.3506,544.9127 " fill="none" id="E,~E,~E,~E,~E-~E,~E,~E,~E,~E" style="stroke: #A80036; stroke-width: 1.0;"/><polygon fill="#A80036" points="284.3897,544.329,274.9891,541.3916,279.4229,544.9046,275.91,549.3384,284.3897,544.329" style="stroke: #A80036; stroke-width: 1.0;"/><text fill="#000000" font-family="sans-serif" font-size="11" lengthAdjust="spacingAndGlyphs" textLength="14" x="49" y="939.6348">43</text><!--link ~E,~E,~E,~E,~E to E,~E,~E,~E,~E--><path d="M284.4718,542.1998 C189.4975,549.2074 6,570.1082 6,627 C6,627 6,627 6,1263 C6,1295.3713 29.6038,1298.4579 58,1314 C90.1195,1331.5799 130.245,1340.8276 162.4026,1345.6815 " fill="none" id="~E,~E,~E,~E,~E-E,~E,~E,~E,~E" style="stroke: #A80036; stroke-width: 1.0;"/><polygon fill="#A80036" points="167.4929,1346.4234,159.1639,1341.1672,162.5452,1345.7023,158.0101,1349.0835,167.4929,1346.4234" style="stroke: #A80036; stroke-width: 1.0;"/><text fill="#000000" font-family="sans-serif" font-size="11" lengthAdjust="spacingAndGlyphs" textLength="14" x="7" y="939.6348">44</text><!--link ~E,~E,~E,~E,~E to ~E,E,~E,~E,~E--><path d="M395.6086,550.9048 C410.1289,556.4053 424.6034,564.4018 435,576 C493.3601,641.1056 457.1428,683.4657 486,766 C503.2774,815.415 514.6703,824.9656 533,874 C547.1547,911.8658 550.6193,921.9348 556,962 C566.4159,1039.5575 598.7302,1075.988 551,1138 C544.9098,1145.9125 526.2838,1153.6708 506.6577,1160.023 " fill="none" id="~E,~E,~E,~E,~E-~E,E,~E,~E,~E" style="stroke: #A80036; stroke-width: 1.0;"/><polygon fill="#A80036" points="501.6535,1161.6069,511.441,1162.7045,506.4204,1160.0981,509.0269,1155.0775,501.6535,1161.6069" style="stroke: #A80036; stroke-width: 1.0;"/><text fill="#000000" font-family="sans-serif" font-size="11" lengthAdjust="spacingAndGlyphs" textLength="14" x="525" y="851.6348">39</text><!--link ~E,E,~E,~E,~E to ~E,~E,~E,~E,~E--><path d="M466.9084,1157.9945 C482.5722,1140.9397 504.7932,1113.0951 514,1084 C518.5589,1069.593 516.0374,1064.9731 514,1050 C486.6391,848.9194 447.7433,805.1274 392,610 C387.6734,594.8547 390.4644,589.2836 382,576 C378.2548,570.1225 373.3117,564.6342 368.1358,559.7784 " fill="none" id="~E,E,~E,~E,~E-~E,~E,~E,~E,~E" style="stroke: #A80036; stroke-width: 1.0;"/><polygon fill="#A80036" points="364.1484,556.1925,368.1654,565.1849,367.866,559.536,373.515,559.2367,364.1484,556.1925" style="stroke: #A80036; stroke-width: 1.0;"/><text fill="#000000" font-family="sans-serif" font-size="11" lengthAdjust="spacingAndGlyphs" textLength="14" x="472" y="851.6348">45</text><!--link ~E,~E,~E,~E,~E to ~E,~E,~E,E,~E--><path d="M352.1152,556.3023 C362.9059,573.4305 377,600.8142 377,627 C377,627 377,627 377,891 C377,918.5867 355.6706,942.5318 336.5595,958.4497 " fill="none" id="~E,~E,~E,~E,~E-~E,~E,~E,E,~E" style="stroke: #A80036; stroke-width: 1.0;"/><polygon fill="#A80036" points="332.2716,961.9217,341.7833,959.3668,336.1575,958.7753,336.749,953.1494,332.2716,961.9217" style="stroke: #A80036; stroke-width: 1.0;"/><text fill="#000000" font-family="sans-serif" font-size="11" lengthAdjust="spacingAndGlyphs" textLength="14" x="378" y="763.6348">46</text><!--link ~E,~E,~E,E,~E to ~E,~E,~E,~E,~E--><path d="M255.4407,974.6818 C203.8201,967.2009 132,946.7714 132,891 C132,627 132,627 132,627 C132,594.7735 217.7582,567.6503 279.143,552.3636 " fill="none" id="~E,~E,~E,E,~E-~E,~E,~E,~E,~E" style="stroke: #A80036; stroke-width: 1.0;"/><polygon fill="#A80036" points="284.2598,551.1026,274.5641,549.3727,279.4051,552.2992,276.4786,557.1402,284.2598,551.1026" style="stroke: #A80036; stroke-width: 1.0;"/><text fill="#000000" font-family="sans-serif" font-size="11" lengthAdjust="spacingAndGlyphs" textLength="14" x="133" y="763.6348">39</text><!--link ~E,~E,~E,E,~E to ~E,~E,~E,E,~E--><path d="M358.739,970.9721 C370.1727,971.7264 378.5,974.4023 378.5,979 C378.5,982.8793 372.5717,985.3905 363.8511,986.5336 " fill="none" id="~E,~E,~E,E,~E-~E,~E,~E,E,~E" style="stroke: #A80036; stroke-width: 1.0;"/><polygon fill="#A80036" points="358.739,987.0279,368.0823,990.1428,363.7158,986.5465,367.312,982.1799,358.739,987.0279" style="stroke: #A80036; stroke-width: 1.0;"/><text fill="#000000" font-family="sans-serif" font-size="11" lengthAdjust="spacingAndGlyphs" textLength="14" x="384.5" y="983.6348">17</text><!--link ~E,~E,~E,~E,~E to ~E,~E,~E,~E,E--><path d="M335.497,556.0972 C325.2291,594.3305 298.5914,689.4002 268,766 C266.013,770.9755 263.6453,776.2113 261.2905,781.128 " fill="none" id="~E,~E,~E,~E,~E-~E,~E,~E,~E,E" style="stroke: #A80036; stroke-width: 1.0;"/><polygon fill="#A80036" points="258.9546,785.9168,266.4955,779.5816,261.1467,781.423,259.3054,776.0742,258.9546,785.9168" style="stroke: #A80036; stroke-width: 1.0;"/><text fill="#000000" font-family="sans-serif" font-size="11" lengthAdjust="spacingAndGlyphs" textLength="14" x="305" y="675.6348">40</text><!--link ~E,~E,~E,~E,E to ~E,~E,~E,~E,~E--><path d="M252.3669,785.9681 C256.3467,759.4136 265.4059,706.7562 280,664 C293.9994,622.9861 303.1872,615.041 322,576 C324.3257,571.1736 326.8337,565.9994 329.2174,561.0955 " fill="none" id="~E,~E,~E,~E,E-~E,~E,~E,~E,~E" style="stroke: #A80036; stroke-width: 1.0;"/><polygon fill="#A80036" points="331.5485,556.3045,324.0139,562.6472,329.3608,560.8005,331.2075,566.1475,331.5485,556.3045" style="stroke: #A80036; stroke-width: 1.0;"/><text fill="#000000" font-family="sans-serif" font-size="11" lengthAdjust="spacingAndGlyphs" textLength="14" x="281" y="675.6348">42</text><!--link ~E,E,~E,~E,~E to ~E,E,~E,~E,~E--><path d="M501.739,1166.9721 C513.1727,1167.7264 521.5,1170.4023 521.5,1175 C521.5,1178.8793 515.5717,1181.3905 506.8511,1182.5336 " fill="none" id="~E,E,~E,~E,~E-~E,E,~E,~E,~E" style="stroke: #A80036; stroke-width: 1.0;"/><polygon fill="#A80036" points="501.739,1183.0279,511.0823,1186.1428,506.7158,1182.5465,510.312,1178.1799,501.739,1183.0279" style="stroke: #A80036; stroke-width: 1.0;"/><text fill="#000000" font-family="sans-serif" font-size="11" lengthAdjust="spacingAndGlyphs" textLength="14" x="527.5" y="1179.6348">12</text><!--link ~E,~E,E,~E,~E to ~E,~E,E,~E,~E--><path d="M670.739,618.9721 C682.1727,619.7264 690.5,622.4023 690.5,627 C690.5,630.8793 684.5717,633.3905 675.8511,634.5336 " fill="none" id="~E,~E,E,~E,~E-~E,~E,E,~E,~E" style="stroke: #A80036; stroke-width: 1.0;"/><polygon fill="#A80036" points="670.739,635.0279,680.0823,638.1428,675.7158,634.5465,679.312,630.1799,670.739,635.0279" style="stroke: #A80036; stroke-width: 1.0;"/><text fill="#000000" font-family="sans-serif" font-size="11" lengthAdjust="spacingAndGlyphs" textLength="14" x="696.5" y="631.6348">17</text><!--link ~E,~E,~E,E,~E to ~E,E,~E,E,~E--><path d="M304.4319,996.1139 C303.6022,1006.2989 303.7944,1019.283 308,1030 C310.26,1035.759 313.8522,1041.2007 317.8505,1046.0495 " fill="none" id="~E,~E,~E,E,~E-~E,E,~E,E,~E" style="stroke: #A80036; stroke-width: 1.0;"/><polygon fill="#A80036" points="321.2842,1049.9769,318.3719,1040.5685,317.9932,1046.2127,312.3491,1045.834,321.2842,1049.9769" style="stroke: #A80036; stroke-width: 1.0;"/><text fill="#000000" font-family="sans-serif" font-size="11" lengthAdjust="spacingAndGlyphs" textLength="7" x="309" y="1027.6348">6</text><!--link ~E,E,~E,E,~E to ~E,~E,~E,E,~E--><path d="M334.4123,1049.9496 C329.0581,1036.0915 321.4626,1016.4325 315.6242,1001.3213 " fill="none" id="~E,E,~E,E,~E-~E,~E,~E,E,~E" style="stroke: #A80036; stroke-width: 1.0;"/><polygon fill="#A80036" points="313.7173,996.386,313.23,1006.2228,315.5194,1001.0499,320.6923,1003.3394,313.7173,996.386" style="stroke: #A80036; stroke-width: 1.0;"/><text fill="#000000" font-family="sans-serif" font-size="11" lengthAdjust="spacingAndGlyphs" textLength="7" x="328" y="1027.6348">1</text><!--link ~E,E,~E,E,~E to ~E,E,~E,~E,~E--><path d="M346.7666,1084.0167 C352.7745,1099.6531 363.4933,1122.6631 379,1138 C385.7541,1144.6801 393.9623,1150.4306 402.3667,1155.2716 " fill="none" id="~E,E,~E,E,~E-~E,E,~E,~E,~E" style="stroke: #A80036; stroke-width: 1.0;"/><polygon fill="#A80036" points="407.0481,1157.8676,401.1172,1150.0048,402.6754,1155.4428,397.2374,1157.001,407.0481,1157.8676" style="stroke: #A80036; stroke-width: 1.0;"/><text fill="#000000" font-family="sans-serif" font-size="11" lengthAdjust="spacingAndGlyphs" textLength="7" x="380" y="1125.6348">6</text><!--link ~E,E,~E,~E,~E to ~E,E,~E,E,~E--><path d="M436.8521,1157.7828 C425.0681,1142.8402 406.924,1120.9969 389,1104 C382.9303,1098.2443 376.0014,1092.4951 369.3322,1087.3035 " fill="none" id="~E,E,~E,~E,~E-~E,E,~E,E,~E" style="stroke: #A80036; stroke-width: 1.0;"/><polygon fill="#A80036" points="365.2233,1084.148,369.9249,1092.8022,369.1888,1087.1934,374.7976,1086.4573,365.2233,1084.148" style="stroke: #A80036; stroke-width: 1.0;"/><text fill="#000000" font-family="sans-serif" font-size="11" lengthAdjust="spacingAndGlyphs" textLength="7" x="421" y="1125.6348">1</text><!--link ~E,~E,~E,~E,E to ~E,~E,~E,~E,E--><path d="M301.739,794.9721 C313.1727,795.7264 321.5,798.4023 321.5,803 C321.5,806.8793 315.5717,809.3905 306.8511,810.5336 " fill="none" id="~E,~E,~E,~E,E-~E,~E,~E,~E,E" style="stroke: #A80036; stroke-width: 1.0;"/><polygon fill="#A80036" points="301.739,811.0279,311.0823,814.1428,306.7158,810.5465,310.312,806.1799,301.739,811.0279" style="stroke: #A80036; stroke-width: 1.0;"/><text fill="#000000" font-family="sans-serif" font-size="11" lengthAdjust="spacingAndGlyphs" textLength="14" x="327.5" y="807.6348">14</text><!--link ~E,E,~E,~E,~E to ~E,E,~E,~E,E--><path d="M446.4353,1192.3893 C445.0803,1202.4358 444.5803,1215.1858 448,1226 C449.7036,1231.3873 452.5042,1236.6698 455.6503,1241.4806 " fill="none" id="~E,E,~E,~E,~E-~E,E,~E,~E,E" style="stroke: #A80036; stroke-width: 1.0;"/><polygon fill="#A80036" points="458.6152,1245.7556,456.7728,1236.0806,455.7657,1241.6471,450.1992,1240.6399,458.6152,1245.7556" style="stroke: #A80036; stroke-width: 1.0;"/><text fill="#000000" font-family="sans-serif" font-size="11" lengthAdjust="spacingAndGlyphs" textLength="7" x="449" y="1223.6348">2</text><!--link ~E,E,~E,~E,E to ~E,E,~E,~E,~E--><path d="M469.3499,1245.9496 C465.5704,1232.0915 460.2089,1212.4325 456.0876,1197.3213 " fill="none" id="~E,E,~E,~E,E-~E,E,~E,~E,~E" style="stroke: #A80036; stroke-width: 1.0;"/><polygon fill="#A80036" points="454.7416,1192.386,453.2508,1202.1214,456.0573,1197.2098,460.9689,1200.0163,454.7416,1192.386" style="stroke: #A80036; stroke-width: 1.0;"/><text fill="#000000" font-family="sans-serif" font-size="11" lengthAdjust="spacingAndGlyphs" textLength="7" x="464" y="1223.6348">2</text><!--link ~E,E,~E,~E,E to ~E,~E,~E,~E,E--><path d="M521.56,1248.2716 C532.3523,1242.8561 542.7539,1235.6073 550,1226 C559.2399,1213.7492 554.6616,1207.2861 556,1192 C561.5083,1129.0905 563.4751,1111.9058 551,1050 C531.362,952.5494 550.5726,903.3948 474,840 C449.1703,819.4433 364.628,810.0507 306.8122,805.9479 " fill="none" id="~E,E,~E,~E,E-~E,~E,~E,~E,E" style="stroke: #A80036; stroke-width: 1.0;"/><polygon fill="#A80036" points="301.6528,805.5907,310.355,810.2029,306.6409,805.9361,310.9076,802.222,301.6528,805.5907" style="stroke: #A80036; stroke-width: 1.0;"/><text fill="#000000" font-family="sans-serif" font-size="11" lengthAdjust="spacingAndGlyphs" textLength="7" x="548" y="1027.6348">1</text><!--link ~E,~E,~E,~E,E to ~E,E,~E,~E,E--><path d="M242.4607,820.3168 C221.757,870.2414 167.5332,1018.5195 198,1138 C209.008,1181.1696 209.2073,1200.8785 246,1226 C275.046,1245.8322 368.4028,1239.6737 403,1246 C408.9418,1247.0865 415.1319,1248.3576 421.2718,1249.7069 " fill="none" id="~E,~E,~E,~E,E-~E,E,~E,~E,E" style="stroke: #A80036; stroke-width: 1.0;"/><polygon fill="#A80036" points="426.4111,1250.8564,418.5014,1244.9881,421.5317,1249.7648,416.7549,1252.7951,426.4111,1250.8564" style="stroke: #A80036; stroke-width: 1.0;"/><text fill="#000000" font-family="sans-serif" font-size="11" lengthAdjust="spacingAndGlyphs" textLength="7" x="193" y="1027.6348">1</text><!--link E,~E,~E,~E,~E to E,~E,~E,~E,E--><path d="M195.4995,1368.0689 C189.2326,1373.7346 183.0781,1380.5264 179,1388 C174.2762,1396.657 171.9481,1407.2583 170.83,1416.5485 " fill="none" id="E,~E,~E,~E,~E-E,~E,~E,~E,E" style="stroke: #A80036; stroke-width: 1.0;"/><polygon fill="#A80036" points="170.3258,1421.5542,175.208,1413.0006,170.8271,1416.5794,167.2483,1412.1985,170.3258,1421.5542" style="stroke: #A80036; stroke-width: 1.0;"/><text fill="#000000" font-family="sans-serif" font-size="11" lengthAdjust="spacingAndGlyphs" textLength="7" x="180" y="1399.6348">4</text><!--link E,~E,~E,~E,E to E,~E,~E,~E,~E--><path d="M179.494,1421.9496 C187.2775,1407.971 198.3475,1388.0902 206.79,1372.9282 " fill="none" id="E,~E,~E,~E,E-E,~E,~E,~E,~E" style="stroke: #A80036; stroke-width: 1.0;"/><polygon fill="#A80036" points="209.3192,1368.386,201.4461,1374.3034,206.8868,1372.7545,208.4357,1378.1952,209.3192,1368.386" style="stroke: #A80036; stroke-width: 1.0;"/><text fill="#000000" font-family="sans-serif" font-size="11" lengthAdjust="spacingAndGlyphs" textLength="7" x="199" y="1399.6348">3</text><!--link ~E,~E,~E,~E,E to E,~E,~E,~E,E--><path d="M237.8219,820.0173 C233.5824,826.1971 228.912,833.3069 225,840 C216.4747,854.586 214.1667,858.2709 208,874 C166.2624,980.4572 136,1006.6533 136,1121 C136,1121 136,1121 136,1351 C136,1374.8038 146.9583,1399.9426 156.4325,1417.2286 " fill="none" id="~E,~E,~E,~E,E-E,~E,~E,~E,E" style="stroke: #A80036; stroke-width: 1.0;"/><polygon fill="#A80036" points="159.055,1421.8883,158.1265,1412.0833,156.6026,1417.531,151.1549,1416.0072,159.055,1421.8883" style="stroke: #A80036; stroke-width: 1.0;"/><text fill="#000000" font-family="sans-serif" font-size="11" lengthAdjust="spacingAndGlyphs" textLength="7" x="138" y="1125.6348">2</text><!--link E,~E,~E,~E,E to ~E,~E,~E,~E,E--><path d="M139.7554,1421.8545 C117.1008,1406.5281 90,1381.7645 90,1351 C90,891 90,891 90,891 C90,842.3659 147.4577,820.4189 193.5091,810.639 " fill="none" id="E,~E,~E,~E,E-~E,~E,~E,~E,E" style="stroke: #A80036; stroke-width: 1.0;"/><polygon fill="#A80036" points="198.4943,809.6177,188.8746,807.5055,193.596,810.6213,190.4803,815.3427,198.4943,809.6177" style="stroke: #A80036; stroke-width: 1.0;"/><text fill="#000000" font-family="sans-serif" font-size="11" lengthAdjust="spacingAndGlyphs" textLength="7" x="91" y="1125.6348">3</text><!--link E,~E,~E,~E,~E to E,~E,~E,~E,~E--><path d="M270.739,1342.9721 C282.1727,1343.7264 290.5,1346.4023 290.5,1351 C290.5,1354.8793 284.5717,1357.3905 275.8511,1358.5336 " fill="none" id="E,~E,~E,~E,~E-E,~E,~E,~E,~E" style="stroke: #A80036; stroke-width: 1.0;"/><polygon fill="#A80036" points="270.739,1359.0279,280.0823,1362.1428,275.7158,1358.5465,279.312,1354.1799,270.739,1359.0279" style="stroke: #A80036; stroke-width: 1.0;"/><text fill="#000000" font-family="sans-serif" font-size="11" lengthAdjust="spacingAndGlyphs" textLength="14" x="296.5" y="1355.6348">14</text><!--link ~E,E,~E,~E,~E to ~E,E,E,~E,~E--><path d="M499.9213,1192.0668 C515.8069,1197.9187 533.3198,1204.8157 549,1212 C569.3714,1221.3337 591.3893,1233.3175 608.8856,1243.3229 " fill="none" id="~E,E,~E,~E,~E-~E,E,E,~E,~E" style="stroke: #A80036; stroke-width: 1.0;"/><polygon fill="#A80036" points="613.2326,1245.8213,607.4227,1237.8686,608.8976,1243.3298,603.4363,1244.8047,613.2326,1245.8213" style="stroke: #A80036; stroke-width: 1.0;"/><text fill="#000000" font-family="sans-serif" font-size="11" lengthAdjust="spacingAndGlyphs" textLength="7" x="576" y="1223.6348">2</text><!--link ~E,E,E,~E,~E to ~E,E,~E,~E,~E--><path d="M594.2358,1248.5801 C575.7218,1242.411 554.5554,1234.635 536,1226 C516.7236,1217.0295 496.2059,1204.9681 480.0475,1194.827 " fill="none" id="~E,E,E,~E,~E-~E,E,~E,~E,~E" style="stroke: #A80036; stroke-width: 1.0;"/><polygon fill="#A80036" points="475.6103,1192.0218,481.0801,1200.2121,479.8366,1194.6936,485.355,1193.4501,475.6103,1192.0218" style="stroke: #A80036; stroke-width: 1.0;"/><text fill="#000000" font-family="sans-serif" font-size="11" lengthAdjust="spacingAndGlyphs" textLength="7" x="537" y="1223.6348">4</text><!--link ~E,E,E,~E,~E to ~E,~E,E,~E,~E--><path d="M663.3348,1245.856 C680.9255,1229.6579 703,1203.6276 703,1175 C703,715 703,715 703,715 C703,685.5729 678.1185,662.1109 655.439,646.8375 " fill="none" id="~E,E,E,~E,~E-~E,~E,E,~E,~E" style="stroke: #A80036; stroke-width: 1.0;"/><polygon fill="#A80036" points="651.2364,644.0813,656.5686,652.3619,655.4174,646.8234,660.9559,645.6722,651.2364,644.0813" style="stroke: #A80036; stroke-width: 1.0;"/><text fill="#000000" font-family="sans-serif" font-size="11" lengthAdjust="spacingAndGlyphs" textLength="7" x="704" y="939.6348">2</text><!--link ~E,~E,E,~E,~E to ~E,E,E,~E,~E--><path d="M632.7524,644.0554 C645.0013,661.0006 661,688.2527 661,715 C661,715 661,715 661,1175 C661,1197.6632 654.9045,1222.8851 649.6185,1240.4964 " fill="none" id="~E,~E,E,~E,~E-~E,E,E,~E,~E" style="stroke: #A80036; stroke-width: 1.0;"/><polygon fill="#A80036" points="648.0117,1245.7064,654.4865,1238.285,649.4853,1240.9285,646.8418,1235.9273,648.0117,1245.7064" style="stroke: #A80036; stroke-width: 1.0;"/><text fill="#000000" font-family="sans-serif" font-size="11" lengthAdjust="spacingAndGlyphs" textLength="7" x="662" y="939.6348">4</text><!--link ~E,~E,~E,E,~E to ~E,~E,E,E,~E--><path d="M336.0824,996.1762 C360.9008,1010.834 396.5934,1031.9142 422.5819,1047.2632 " fill="none" id="~E,~E,~E,E,~E-~E,~E,E,E,~E" style="stroke: #A80036; stroke-width: 1.0;"/><polygon fill="#A80036" points="426.9909,1049.8671,421.2758,1041.846,422.6857,1047.3244,417.2074,1048.7343,426.9909,1049.8671" style="stroke: #A80036; stroke-width: 1.0;"/><text fill="#000000" font-family="sans-serif" font-size="11" lengthAdjust="spacingAndGlyphs" textLength="7" x="391" y="1027.6348">2</text><!--link ~E,~E,E,E,~E to ~E,~E,E,~E,~E--><path d="M503.741,1058.728 C524.3145,1053.2792 547.592,1044.3845 565,1030 C602.4388,999.0637 619,983.5666 619,935 C619,715 619,715 619,715 C619,692.7088 619,667.2413 619,649.4593 " fill="none" id="~E,~E,E,E,~E-~E,~E,E,~E,~E" style="stroke: #A80036; stroke-width: 1.0;"/><polygon fill="#A80036" points="619,644.1995,615,653.1995,619,649.1995,623,653.1995,619,644.1995" style="stroke: #A80036; stroke-width: 1.0;"/><text fill="#000000" font-family="sans-serif" font-size="11" lengthAdjust="spacingAndGlyphs" textLength="7" x="620" y="851.6348">2</text><!--link ~E,~E,~E,~E,E to ~E,~E,~E,E,E--><path d="M258.9033,820.3121 C262.0922,826.5196 265.7108,833.5715 269,840 C273.8891,849.5553 279.2804,860.1252 283.8801,869.1531 " fill="none" id="~E,~E,~E,~E,E-~E,~E,~E,E,E" style="stroke: #A80036; stroke-width: 1.0;"/><polygon fill="#A80036" points="286.3458,873.9936,285.8248,864.1585,284.0763,869.5384,278.6964,867.7898,286.3458,873.9936" style="stroke: #A80036; stroke-width: 1.0;"/><text fill="#000000" font-family="sans-serif" font-size="11" lengthAdjust="spacingAndGlyphs" textLength="7" x="277" y="851.6348">2</text><!--link ~E,~E,~E,E,E to ~E,~E,~E,~E,E--><path d="M271.8172,873.9771 C265.6994,868.3128 259.7622,861.5101 256,854 C251.6606,845.3378 249.9242,834.8396 249.3627,825.6251 " fill="none" id="~E,~E,~E,E,E-~E,~E,~E,~E,E" style="stroke: #A80036; stroke-width: 1.0;"/><polygon fill="#A80036" points="249.1572,820.3716,245.5123,829.5212,249.3528,825.3678,253.5062,829.2083,249.1572,820.3716" style="stroke: #A80036; stroke-width: 1.0;"/><text fill="#000000" font-family="sans-serif" font-size="11" lengthAdjust="spacingAndGlyphs" textLength="7" x="257" y="851.6348">2</text><!--link ~E,~E,~E,E,E to ~E,~E,~E,E,~E--><path d="M297.3708,908.386 C299.2566,922.2154 301.9087,941.6635 303.9522,956.6491 " fill="none" id="~E,~E,~E,E,E-~E,~E,~E,E,~E" style="stroke: #A80036; stroke-width: 1.0;"/><polygon fill="#A80036" points="304.6749,961.9496,307.4222,952.4917,303.9993,956.9955,299.4955,953.5726,304.6749,961.9496" style="stroke: #A80036; stroke-width: 1.0;"/><text fill="#000000" font-family="sans-serif" font-size="11" lengthAdjust="spacingAndGlyphs" textLength="7" x="303" y="939.6348">2</text><!--link ~E,~E,~E,E,~E to ~E,~E,~E,E,E--><path d="M295.3428,961.6709 C291.9615,955.6979 288.7192,948.7958 287,942 C284.6261,932.6162 285.679,922.073 287.6899,913.0189 " fill="none" id="~E,~E,~E,E,~E-~E,~E,~E,E,E" style="stroke: #A80036; stroke-width: 1.0;"/><polygon fill="#A80036" points="288.8899,908.1588,282.8489,915.9373,287.6912,913.013,290.6155,917.8553,288.8899,908.1588" style="stroke: #A80036; stroke-width: 1.0;"/><text fill="#000000" font-family="sans-serif" font-size="11" lengthAdjust="spacingAndGlyphs" textLength="7" x="288" y="939.6348">2</text><!--link E,~E,~E,~E,~E to E,~E,~E,E,~E--><path d="M219.0499,1333.7607 C219.3657,1307.3694 220.9333,1255.4411 228,1212 C231.8847,1188.1197 239.3053,1161.4186 244.8715,1143.15 " fill="none" id="E,~E,~E,~E,~E-E,~E,~E,E,~E" style="stroke: #A80036; stroke-width: 1.0;"/><polygon fill="#A80036" points="246.3878,1138.2302,239.9143,1145.6528,244.9151,1143.0084,247.5594,1148.0091,246.3878,1138.2302" style="stroke: #A80036; stroke-width: 1.0;"/><text fill="#000000" font-family="sans-serif" font-size="11" lengthAdjust="spacingAndGlyphs" textLength="7" x="229" y="1223.6348">1</text><!--link E,~E,~E,E,~E to E,~E,~E,~E,~E--><path d="M252.5876,1138.123 C253.3227,1172.2304 252.8311,1250.8085 236,1314 C234.6627,1319.0208 232.692,1324.2086 230.5618,1329.0535 " fill="none" id="E,~E,~E,E,~E-E,~E,~E,~E,~E" style="stroke: #A80036; stroke-width: 1.0;"/><polygon fill="#A80036" points="228.396,1333.7653,235.7895,1327.2587,230.4844,1329.2223,228.5208,1323.9172,228.396,1333.7653" style="stroke: #A80036; stroke-width: 1.0;"/><text fill="#000000" font-family="sans-serif" font-size="11" lengthAdjust="spacingAndGlyphs" textLength="7" x="253" y="1223.6348">1</text><!--link E,~E,~E,E,~E to ~E,~E,~E,E,~E--><path d="M258.0757,1103.7985 C265.5243,1082.9137 278.68,1046.6767 291,1016 C292.9561,1011.1293 295.1394,1005.9367 297.2488,1001.029 " fill="none" id="E,~E,~E,E,~E-~E,~E,~E,E,~E" style="stroke: #A80036; stroke-width: 1.0;"/><polygon fill="#A80036" points="299.3224,996.2387,292.0761,1002.9089,297.336,1000.8272,299.4177,1006.0871,299.3224,996.2387" style="stroke: #A80036; stroke-width: 1.0;"/><text fill="#000000" font-family="sans-serif" font-size="11" lengthAdjust="spacingAndGlyphs" textLength="7" x="292" y="1027.6348">1</text><!--link ~E,~E,~E,E,~E to E,~E,~E,E,~E--><path d="M288.4613,996.2542 C282.9311,1002.1161 277.2248,1008.9716 273,1016 C257.6607,1041.5186 253.2951,1076.2048 252.1764,1098.5995 " fill="none" id="~E,~E,~E,E,~E-E,~E,~E,E,~E" style="stroke: #A80036; stroke-width: 1.0;"/><polygon fill="#A80036" points="251.9659,1103.7375,256.331,1094.9088,252.1706,1098.7417,248.3377,1094.5813,251.9659,1103.7375" style="stroke: #A80036; stroke-width: 1.0;"/><text fill="#000000" font-family="sans-serif" font-size="11" lengthAdjust="spacingAndGlyphs" textLength="7" x="274" y="1027.6348">1</text><!--link ~E,E,~E,~E,~E to E,E,~E,~E,~E--><path d="M429.5057,1192.1762 C412.3053,1206.5918 387.6931,1227.2191 369.4633,1242.4974 " fill="none" id="~E,E,~E,~E,~E-E,E,~E,~E,~E" style="stroke: #A80036; stroke-width: 1.0;"/><polygon fill="#A80036" points="365.4426,1245.8671,374.9097,1243.1518,369.2747,1242.6554,369.771,1237.0204,365.4426,1245.8671" style="stroke: #A80036; stroke-width: 1.0;"/><text fill="#000000" font-family="sans-serif" font-size="11" lengthAdjust="spacingAndGlyphs" textLength="7" x="404" y="1223.6348">1</text><!--link E,E,~E,~E,~E to E,~E,~E,~E,~E--><path d="M323.6418,1280.0429 C310.6601,1290.2029 293.6267,1303.1854 278,1314 C269.7792,1319.6892 260.7137,1325.5634 252.2068,1330.9094 " fill="none" id="E,E,~E,~E,~E-E,~E,~E,~E,~E" style="stroke: #A80036; stroke-width: 1.0;"/><polygon fill="#A80036" points="247.5471,1333.8206,257.2993,1332.4444,251.7876,1331.1714,253.0606,1325.6596,247.5471,1333.8206" style="stroke: #A80036; stroke-width: 1.0;"/><text fill="#000000" font-family="sans-serif" font-size="11" lengthAdjust="spacingAndGlyphs" textLength="7" x="298" y="1311.6348">1</text><!--link ~E,~E,~E,~E,E to ~E,~E,E,~E,E--><path d="M278.8399,785.8792 C301.0915,772.9192 330.1701,756.5909 343,752 C390.1924,735.1133 446.6419,725.5161 486.993,720.3513 " fill="none" id="~E,~E,~E,~E,E-~E,~E,E,~E,E" style="stroke: #A80036; stroke-width: 1.0;"/><polygon fill="#A80036" points="492.3284,719.6822,482.9006,716.8331,487.3673,720.3043,483.8961,724.771,492.3284,719.6822" style="stroke: #A80036; stroke-width: 1.0;"/><text fill="#000000" font-family="sans-serif" font-size="11" lengthAdjust="spacingAndGlyphs" textLength="7" x="344" y="763.6348">1</text><!--link ~E,~E,E,~E,E to ~E,~E,~E,~E,E--><path d="M495.9293,732.1129 C468.082,742.605 431.2096,755.9126 398,766 C368.1787,775.0582 334.5013,783.6068 306.8141,790.2004 " fill="none" id="~E,~E,E,~E,E-~E,~E,~E,~E,E" style="stroke: #A80036; stroke-width: 1.0;"/><polygon fill="#A80036" points="301.7163,791.4085,311.3961,793.2253,306.5815,790.2555,309.5513,785.4409,301.7163,791.4085" style="stroke: #A80036; stroke-width: 1.0;"/><text fill="#000000" font-family="sans-serif" font-size="11" lengthAdjust="spacingAndGlyphs" textLength="7" x="438" y="763.6348">2</text><!--link ~E,~E,E,~E,E to ~E,~E,E,~E,~E--><path d="M555.3066,697.9496 C568.0719,683.73 586.3201,663.4029 600.0147,648.1482 " fill="none" id="~E,~E,E,~E,E-~E,~E,E,~E,~E" style="stroke: #A80036; stroke-width: 1.0;"/><polygon fill="#A80036" points="603.3921,644.386,594.4033,648.4111,600.052,648.1067,600.3564,653.7553,603.3921,644.386" style="stroke: #A80036; stroke-width: 1.0;"/><text fill="#000000" font-family="sans-serif" font-size="11" lengthAdjust="spacingAndGlyphs" textLength="7" x="585" y="675.6348">1</text><!--link ~E,~E,E,~E,~E to ~E,~E,E,~E,E--><path d="M583.6664,644.075 C575.0624,649.5101 566.482,656.1814 560,664 C553.0735,672.3548 548.3482,683.3943 545.2379,693.0652 " fill="none" id="~E,~E,E,~E,~E-~E,~E,E,~E,E" style="stroke: #A80036; stroke-width: 1.0;"/><polygon fill="#A80036" points="543.7555,697.9763,550.1856,690.5161,545.2004,693.1896,542.5269,688.2044,543.7555,697.9763" style="stroke: #A80036; stroke-width: 1.0;"/><text fill="#000000" font-family="sans-serif" font-size="11" lengthAdjust="spacingAndGlyphs" textLength="7" x="561" y="675.6348">2</text><!--
@startuml
(*) - -> [1] "null,null,null,null,null"
"null,null,null,null,null" - -> [1] "~E,null,null,null,null"
"~E,null,null,null,null" - -> [1] "~E,~E,null,null,null"
"~E,~E,null,null,null" - -> [1] "~E,~E,~E,null,null"
"~E,~E,~E,null,null" - -> [1] "~E,~E,~E,~E,null"
"~E,~E,~E,~E,null" - -> [1] "~E,~E,~E,~E,~E"
"~E,~E,~E,~E,~E" - -> [176] "~E,~E,~E,~E,~E"
"~E,~E,~E,~E,~E" - -> [42] "~E,~E,E,~E,~E"
"~E,~E,E,~E,~E" - -> [2] "E,~E,E,~E,~E"
"E,~E,E,~E,~E" - -> [2] "E,~E,~E,~E,~E"
"E,~E,~E,~E,~E" - -> [43] "~E,~E,~E,~E,~E"
"~E,~E,~E,~E,~E" - -> [39] "~E,E,~E,~E,~E"
"~E,~E,~E,~E,~E" - -> [46] "~E,~E,~E,E,~E"
"~E,~E,~E,E,~E" - -> [17] "~E,~E,~E,E,~E"
"~E,~E,~E,E,~E" - -> [39] "~E,~E,~E,~E,~E"
"~E,~E,~E,~E,~E" - -> [40] "~E,~E,~E,~E,E"
"~E,~E,~E,~E,E" - -> [42] "~E,~E,~E,~E,~E"
"~E,E,~E,~E,~E" - -> [12] "~E,E,~E,~E,~E"
"~E,~E,~E,~E,~E" - -> [44] "E,~E,~E,~E,~E"
"~E,~E,E,~E,~E" - -> [17] "~E,~E,E,~E,~E"
"~E,~E,E,~E,~E" - -> [42] "~E,~E,~E,~E,~E"
"~E,~E,~E,E,~E" - -> [6] "~E,E,~E,E,~E"
"~E,E,~E,E,~E" - -> [6] "~E,E,~E,~E,~E"
"~E,~E,~E,~E,E" - -> [14] "~E,~E,~E,~E,E"
"~E,E,~E,~E,~E" - -> [2] "~E,E,~E,~E,E"
"~E,E,~E,~E,E" - -> [1] "~E,~E,~E,~E,E"
"E,~E,~E,~E,~E" - -> [4] "E,~E,~E,~E,E"
"E,~E,~E,~E,E" - -> [3] "E,~E,~E,~E,~E"
"~E,~E,~E,~E,E" - -> [2] "E,~E,~E,~E,E"
"E,~E,~E,~E,~E" - -> [14] "E,~E,~E,~E,~E"
"~E,E,~E,~E,~E" - -> [2] "~E,E,E,~E,~E"
"~E,E,E,~E,~E" - -> [2] "~E,~E,E,~E,~E"
"~E,~E,~E,E,~E" - -> [2] "~E,~E,E,E,~E"
"~E,~E,E,E,~E" - -> [2] "~E,~E,E,~E,~E"
"~E,~E,E,~E,~E" - -> [4] "~E,E,E,~E,~E"
"~E,E,E,~E,~E" - -> [4] "~E,E,~E,~E,~E"
"~E,~E,~E,~E,E" - -> [2] "~E,~E,~E,E,E"
"~E,~E,~E,E,E" - -> [2] "~E,~E,~E,E,~E"
"E,~E,~E,~E,~E" - -> [3] "E,~E,E,~E,~E"
"E,~E,E,~E,~E" - -> [3] "~E,~E,E,~E,~E"
"E,~E,~E,~E,~E" - -> [1] "E,~E,~E,E,~E"
"E,~E,~E,E,~E" - -> [1] "~E,~E,~E,E,~E"
"~E,E,~E,~E,~E" - -> [1] "E,E,~E,~E,~E"
"E,E,~E,~E,~E" - -> [1] "E,~E,~E,~E,~E"
"~E,~E,~E,~E,E" - -> [1] "~E,~E,E,~E,E"
"~E,~E,E,~E,E" - -> [1] "~E,~E,E,~E,~E"
"~E,~E,~E,E,~E" - -> [1] "E,~E,~E,E,~E"
"E,~E,~E,E,~E" - -> [1] "E,~E,~E,~E,~E"
"~E,~E,E,~E,~E" - -> [2] "~E,~E,E,~E,E"
"~E,~E,E,~E,E" - -> [2] "~E,~E,~E,~E,E"
"E,~E,~E,~E,E" - -> [3] "~E,~E,~E,~E,E"
"~E,~E,~E,~E,E" - -> [1] "~E,E,~E,~E,E"
"~E,E,~E,~E,E" - -> [2] "~E,E,~E,~E,~E"
"~E,~E,~E,E,~E" - -> [2] "~E,~E,~E,E,E"
"~E,~E,~E,E,E" - -> [2] "~E,~E,~E,~E,E"
"~E,E,~E,~E,~E" - -> [1] "~E,E,~E,E,~E"
"~E,E,~E,E,~E" - -> [1] "~E,~E,~E,E,~E"
"~E,E,~E,~E,~E" - -> [45] "~E,~E,~E,~E,~E" #red
@enduml

PlantUML version 1.2017.15(Mon Jul 03 12:45:34 EDT 2017)
(EPL source distribution)
Java Runtime: Java(TM) SE Runtime Environment
JVM: Java HotSpot(TM) 64-Bit Server VM
Java Version: 1.8.0_144-b01
Operating System: Mac OS X
OS Version: 10.12
Default Encoding: UTF-8
Language: en
Country: US
--></g></svg>